<?xml version="1.0" encoding="UTF-8" standalone="no"?>
<!-- Created with Inkscape (http://www.inkscape.org/) -->

<svg
   xmlns:dc="http://purl.org/dc/elements/1.1/"
   xmlns:cc="http://creativecommons.org/ns#"
   xmlns:rdf="http://www.w3.org/1999/02/22-rdf-syntax-ns#"
   xmlns:svg="http://www.w3.org/2000/svg"
   xmlns="http://www.w3.org/2000/svg"
   xmlns:sodipodi="http://sodipodi.sourceforge.net/DTD/sodipodi-0.dtd"
   xmlns:inkscape="http://www.inkscape.org/namespaces/inkscape"
   width="400.60855"
   height="72.275169"
   id="svg3634"
   version="1.1"
   inkscape:version="0.48.4 r9939"
   sodipodi:docname="autobahnws_large.svg">
  <defs
     id="defs3636" />
  <sodipodi:namedview
     id="base"
     pagecolor="#ffffff"
     bordercolor="#666666"
     borderopacity="1.0"
     inkscape:pageopacity="0.0"
     inkscape:pageshadow="2"
     inkscape:zoom="1.4"
     inkscape:cx="513.90399"
     inkscape:cy="-58.736581"
     inkscape:document-units="px"
     inkscape:current-layer="layer1"
     showgrid="false"
     fit-margin-top="4"
     fit-margin-left="4"
     fit-margin-bottom="4"
     fit-margin-right="4"
     inkscape:window-width="1858"
     inkscape:window-height="1178"
     inkscape:window-x="1016"
     inkscape:window-y="-8"
     inkscape:window-maximized="1" />
  <metadata
     id="metadata3639">
    <rdf:RDF>
      <cc:Work
         rdf:about="">
        <dc:format>image/svg+xml</dc:format>
        <dc:type
           rdf:resource="http://purl.org/dc/dcmitype/StillImage" />
        <dc:title />
      </cc:Work>
    </rdf:RDF>
  </metadata>
  <g
     inkscape:label="Ebene 1"
     inkscape:groupmode="layer"
     id="layer1"
     transform="translate(253.50153,-239.34226)">
    <g
       transform="matrix(1.2987292,0,0,1.2987292,-524.18276,470.29519)"
       id="g4159-5-8-0"
       inkscape:export-xdpi="90"
       inkscape:export-ydpi="90"
       inkscape:export-filename="F:\svnwork\tavendo\mymepad\research\Tavendo\Products\Autobahn\Design\elements\autobahnws_large.png"
       style="fill:#ffffff">
      <path
         inkscape:connector-curvature="0"
         id="rect6364-4-9-3-5-8-0-4-5"
         d="m 211.5,-174.75 0,48.84375 44.96875,0 0,-48.84375 -44.96875,0 z m 18.90625,4.6875 2.15625,0 0,9.5625 -4.21875,0 2.0625,-9.5625 z m 5.21875,0.0937 2.15625,0 2.0625,9.53125 -4.21875,0 0,-9.53125 z m -16.75,10.125 30.21875,0 0,1.78125 -1.46875,0 0,2.75 -3.46875,0 0,-2.75 -20.3125,0 0,2.75 -3.40625,0 0,-2.75 -1.5625,0 0,-1.78125 z m 8.15625,4.25 5.53125,0 0,24.59375 -10.6875,0 5.15625,-24.59375 z m 8.59375,0 5.53125,0 5.15625,24.59375 -10.6875,0 0,-24.59375 z"
         style="fill:#ffffff;fill-opacity:1;stroke:none" />
      <path
         d="m 301.60857,-125.89951 -8.59019,0 -3.41471,-8.8837 -15.63307,0 -3.22799,8.8837 -8.37677,0 15.2329,-39.10935 8.35008,0 z m -14.53928,-15.47301 -5.38888,-14.51254 -5.28215,14.51254 z"
         style="font-size:37.11223984px;font-style:normal;font-variant:normal;font-weight:bold;font-stretch:normal;text-align:start;line-height:125%;letter-spacing:0px;word-spacing:0px;writing-mode:lr-tb;text-anchor:start;fill:#ffffff;fill-opacity:1;stroke:none;font-family:Sans;-inkscape-font-specification:Sans Bold"
         id="path3930-1-9-0-6-0-2-4-7-2-9-4"
         inkscape:connector-curvature="0" />
      <path
         d="m 324.41792,-125.89951 0,-4.24184 c -1.03157,1.51177 -2.38768,2.70339 -4.06835,3.57494 -1.6807,0.87145 -3.45477,1.30723 -5.32218,1.30723 -1.903,0 -3.61037,-0.41816 -5.12209,-1.25396 -1.51174,-0.8359 -2.60552,-2.00968 -3.28133,-3.52145 -0.67585,-1.51177 -1.01376,-3.60142 -1.01376,-6.26926 l 0,-17.92734 7.4964,0 0,13.0187 c -3e-5,3.98382 0.13773,6.4249 0.41349,7.32294 0.27568,0.89834 0.77811,1.60976 1.50729,2.13426 0.72917,0.52471 1.65399,0.78711 2.77449,0.78711 1.2805,0 2.42761,-0.35133 3.44138,-1.05389 1.01373,-0.70236 1.70735,-1.57401 2.08088,-2.61446 0.37345,-1.04034 0.5602,-3.58797 0.56022,-7.6431 l 0,-11.95156 7.49638,0 0,28.33168 z"
         style="font-size:37.11223984px;font-style:normal;font-variant:normal;font-weight:bold;font-stretch:normal;text-align:start;line-height:125%;letter-spacing:0px;word-spacing:0px;writing-mode:lr-tb;text-anchor:start;fill:#ffffff;fill-opacity:1;stroke:none;font-family:Sans;-inkscape-font-specification:Sans Bold"
         id="path3932-8-3-9-5-8-5-58-9-8-9-9"
         inkscape:connector-curvature="0" />
      <path
         d="m 352.16259,-154.23119 0,5.97578 -5.1221,0 0,11.418 c 0,2.31212 0.049,3.65928 0.14673,4.04168 0.0978,0.3824 0.32012,0.69818 0.66694,0.94713 0.3468,0.24886 0.76919,0.37354 1.26719,0.37354 0.69359,0 1.69845,-0.2403 3.01456,-0.72049 l 0.64026,5.81586 c -1.74295,0.74697 -3.71707,1.12051 -5.92241,1.12051 -1.35167,0 -2.56997,-0.22686 -3.65483,-0.68036 -1.0849,-0.4536 -1.88077,-1.04034 -2.38766,-1.76083 -0.50689,-0.72028 -0.85812,-1.6938 -1.05376,-2.92117 -0.16001,-0.87135 -0.2401,-2.63207 -0.2401,-5.28198 l 0,-12.35189 -3.44139,0 0,-5.97578 3.44139,0 0,-5.62893 7.52308,-4.37508 0,10.00401 z"
         style="font-size:37.11223984px;font-style:normal;font-variant:normal;font-weight:bold;font-stretch:normal;text-align:start;line-height:125%;letter-spacing:0px;word-spacing:0px;writing-mode:lr-tb;text-anchor:start;fill:#ffffff;fill-opacity:1;stroke:none;font-family:Sans;-inkscape-font-specification:Sans Bold"
         id="path3934-4-4-9-1-5-4-6-5-6-2-6"
         inkscape:connector-curvature="0" />
      <path
         d="m 355.68404,-140.46552 c 0,-2.48977 0.61357,-4.89968 1.84075,-7.22963 1.22715,-2.32974 2.96566,-4.1083 5.21546,-5.33546 2.24981,-1.22706 4.76194,-1.84079 7.53642,-1.84079 4.28618,0 7.79873,1.39177 10.53764,4.17501 2.73888,2.78345 4.10832,6.30043 4.10836,10.55103 -4e-5,4.28615 -1.38282,7.83878 -4.14837,10.65768 -2.76559,2.81889 -6.24702,4.2285 -10.44427,4.2285 -2.59663,0 -5.0732,-0.58695 -7.42971,-1.76083 -2.35652,-1.17379 -4.14838,-2.89449 -5.37553,-5.16209 -1.22718,-2.26751 -1.84075,-5.02865 -1.84075,-8.28342 z m 7.68313,0.40023 c 0,2.80993 0.66694,4.96202 2.00082,6.45596 1.33387,1.49395 2.97899,2.24082 4.93536,2.24082 1.95633,0 3.59702,-0.74687 4.92201,-2.24082 1.32496,-1.49394 1.98746,-3.66365 1.98748,-6.50934 -2e-5,-2.77438 -0.66252,-4.90865 -1.98748,-6.40259 -1.32499,-1.49405 -2.96568,-2.24102 -4.92201,-2.24102 -1.95637,0 -3.60149,0.74697 -4.93536,2.24102 -1.33388,1.49394 -2.00082,3.64583 -2.00082,6.45597 z"
         style="font-size:37.11223984px;font-style:normal;font-variant:normal;font-weight:bold;font-stretch:normal;text-align:start;line-height:125%;letter-spacing:0px;word-spacing:0px;writing-mode:lr-tb;text-anchor:start;fill:#ffffff;fill-opacity:1;stroke:none;font-family:Sans;-inkscape-font-specification:Sans Bold"
         id="path3936-9-4-6-3-0-1-1-4-0-5-0"
         inkscape:connector-curvature="0" />
      <path
         d="m 390.49828,-125.89951 0,-39.10935 7.49641,0 0,14.08583 c 2.31203,-2.63228 5.05095,-3.94837 8.21669,-3.94837 3.45028,0 6.30479,1.24947 8.56351,3.7482 2.25866,2.49884 3.38802,6.08702 3.38805,10.76443 -3e-5,4.83745 -1.15161,8.56355 -3.45473,11.1779 -2.30321,2.61446 -5.0999,3.92169 -8.39013,3.92169 -1.61844,0 -3.21465,-0.40471 -4.78861,-1.21392 -1.57399,-0.80911 -2.9301,-2.00531 -4.06834,-3.58818 l 0,4.16177 z m 7.44305,-14.77942 c 0,2.93462 0.4624,5.10433 1.38724,6.50935 1.2983,1.99196 3.02344,2.98779 5.17545,2.98779 1.65399,0 3.06346,-0.70684 4.22838,-2.12082 1.16491,-1.41378 1.74737,-3.64135 1.74739,-6.68272 -2e-5,-3.23675 -0.58693,-5.57118 -1.76072,-7.00278 -1.17382,-1.43171 -2.67666,-2.14751 -4.50851,-2.14751 -1.7963,0 -3.29024,0.69798 -4.48183,2.09413 -1.19162,1.39606 -1.7874,3.51688 -1.7874,6.36256 z"
         style="font-size:37.11223984px;font-style:normal;font-variant:normal;font-weight:bold;font-stretch:normal;text-align:start;line-height:125%;letter-spacing:0px;word-spacing:0px;writing-mode:lr-tb;text-anchor:start;fill:#ffffff;fill-opacity:1;stroke:none;font-family:Sans;-inkscape-font-specification:Sans Bold"
         id="path3938-6-6-8-99-7-3-55-3-2-5-8"
         inkscape:connector-curvature="0" />
      <path
         d="m 429.82104,-145.58757 -6.80279,-1.22717 c 0.76476,-2.73883 2.08086,-4.76634 3.94829,-6.08253 1.86743,-1.31609 4.64188,-1.97413 8.32341,-1.97413 3.34357,0 5.83348,0.39574 7.46971,1.18723 1.63621,0.79148 2.78779,1.79617 3.45475,3.01447 0.66691,1.2183 1.00039,3.45474 1.00042,6.70951 l -0.0801,8.75017 c -3e-5,2.48997 0.11997,4.32618 0.36015,5.50893 0.24007,1.18275 0.68914,2.44994 1.34721,3.80158 l -7.41637,0 c -0.19565,-0.49801 -0.43575,-1.23612 -0.72029,-2.21422 -0.12455,-0.44464 -0.21344,-0.73811 -0.26677,-0.88042 -1.28055,1.24499 -2.64999,2.17868 -4.10836,2.80117 -1.45838,0.6225 -3.01457,0.9338 -4.66858,0.9338 -2.91675,0 -5.21547,-0.79149 -6.89615,-2.37436 -1.68069,-1.58298 -2.52104,-3.5838 -2.52104,-6.00247 0,-1.6007 0.38239,-3.02793 1.14716,-4.28178 0.76474,-1.25385 1.8363,-2.21412 3.21463,-2.88113 1.37833,-0.66691 3.36583,-1.24947 5.96244,-1.74749 3.50364,-0.65804 5.93131,-1.27147 7.28298,-1.84079 l 0,-0.74687 c -2e-5,-1.44057 -0.35572,-2.46777 -1.0671,-3.0812 -0.71142,-0.61363 -2.05418,-0.92035 -4.02831,-0.92035 -1.3339,0 -2.37432,0.2623 -3.12128,0.78691 -0.74699,0.5247 -1.35168,1.44505 -1.81408,2.76114 z m 10.03077,6.08253 c -0.96041,0.32006 -2.48102,0.70246 -4.56186,1.1471 -2.08088,0.44464 -3.44142,0.88041 -4.08168,1.30712 -0.97818,0.6936 -1.46726,1.57401 -1.46726,2.64115 0,1.0493 0.39124,1.95641 1.17382,2.721 0.78252,0.7648 1.77849,1.1472 2.98787,1.1472 1.35166,0 2.64107,-0.44464 3.86826,-1.33382 0.90702,-0.67587 1.50281,-1.5028 1.7874,-2.48101 0.1956,-0.64032 0.29344,-1.85862 0.29345,-3.65479 z"
         style="font-size:37.11223984px;font-style:normal;font-variant:normal;font-weight:bold;font-stretch:normal;text-align:start;line-height:125%;letter-spacing:0px;word-spacing:0px;writing-mode:lr-tb;text-anchor:start;fill:#ffffff;fill-opacity:1;stroke:none;font-family:Sans;-inkscape-font-specification:Sans Bold"
         id="path3940-3-0-3-5-9-9-19-1-4-3-2"
         inkscape:connector-curvature="0" />
      <path
         d="m 462.10091,-165.00886 0,14.37909 c 2.41876,-2.82775 5.30883,-4.24163 8.67023,-4.24163 1.72512,0 3.28131,0.32026 4.66858,0.96037 1.3872,0.64032 2.43207,1.4584 3.13461,2.45443 0.70248,0.99593 1.18267,2.09851 1.44059,3.30795 0.25785,1.20944 0.38679,3.08578 0.38682,5.62893 l 0,16.62021 -7.4964,0 0,-14.96613 c -2e-5,-2.97007 -0.14237,-4.85527 -0.42685,-5.65562 -0.28457,-0.80035 -0.78701,-1.43619 -1.50728,-1.90752 -0.72031,-0.47122 -1.6229,-0.70684 -2.70777,-0.70684 -1.24498,0 -2.35654,0.30224 -3.3347,0.9069 -0.97819,0.60477 -1.69403,1.51615 -2.14755,2.73445 -0.45353,1.2183 -0.68029,3.01917 -0.68028,5.40229 l 0,14.19247 -7.4964,0 0,-39.10935 z"
         style="font-size:37.11223984px;font-style:normal;font-variant:normal;font-weight:bold;font-stretch:normal;text-align:start;line-height:125%;letter-spacing:0px;word-spacing:0px;writing-mode:lr-tb;text-anchor:start;fill:#ffffff;fill-opacity:1;stroke:none;font-family:Sans;-inkscape-font-specification:Sans Bold"
         id="path3942-7-6-4-9-0-5-6-2-8-3-7"
         inkscape:connector-curvature="0" />
      <path
         d="m 513.80208,-125.89951 -7.4964,0 0,-14.45926 c -10e-6,-3.05899 -0.16009,-5.03771 -0.48019,-5.93585 -0.32016,-0.89803 -0.84037,-1.59611 -1.56064,-2.09413 -0.72032,-0.49801 -1.58734,-0.74687 -2.60107,-0.74687 -1.29833,0 -2.46324,0.35571 -3.49477,1.06703 -1.03153,0.71143 -1.73849,1.65398 -2.12085,2.82786 -0.3824,1.17379 -0.57359,3.3435 -0.57358,6.50935 l 0,12.83187 -7.4964,0 0,-28.33168 6.96286,0 0,4.16168 c 2.4721,-3.2012 5.58448,-4.80189 9.33715,-4.80189 1.65398,0 3.16572,0.29795 4.53519,0.89375 1.36942,0.59581 2.4054,1.35613 3.10794,2.28096 0.70248,0.92482 1.19156,1.97413 1.46726,3.14781 0.27565,1.17389 0.41347,2.85465 0.4135,5.04219 z"
         style="font-size:37.11223984px;font-style:normal;font-variant:normal;font-weight:bold;font-stretch:normal;text-align:start;line-height:125%;letter-spacing:0px;word-spacing:0px;writing-mode:lr-tb;text-anchor:start;fill:#ffffff;fill-opacity:1;stroke:none;font-family:Sans;-inkscape-font-specification:Sans Bold"
         id="path3944-8-6-8-2-5-8-4-3-6-3-4"
         inkscape:connector-curvature="0" />
    </g>
  </g>
</svg>
