<svg xmlns="http://www.w3.org/2000/svg" xmlns:svg="http://www.w3.org/2000/svg" xmlns:xlink="http://www.w3.org/1999/xlink" id="svg3071" width="361.499" height="52.273" version="1.1"><metadata id="metadata3077"/><defs id="defs3075"><linearGradient id="linearGradient4258-6-8-9" x1="78" x2="77" y1="1297.362" y2="1209.362" gradientTransform="matrix(1.1821711,0,0,0.41307235,5667.0431,-6392.092)" gradientUnits="userSpaceOnUse" xlink:href="#linearGradient4231-5-0-9-4"/><linearGradient id="linearGradient4231-5-0-9-4"><stop style="stop-color:#848484;stop-opacity:1" id="stop4233-0-2-27-7" offset="0"/><stop style="stop-color:#f4f4f4;stop-opacity:1" id="stop4235-2-4-9-8" offset="1"/></linearGradient><linearGradient id="linearGradient4258-6-8-9-8" x1="78" x2="77" y1="1297.362" y2="1209.362" gradientTransform="matrix(1.1821711,0,0,0.41307235,5667.0431,-6392.092)" gradientUnits="userSpaceOnUse" xlink:href="#linearGradient4231-5-0-9-4-2"/><linearGradient id="linearGradient4231-5-0-9-4-2"><stop style="stop-color:gray;stop-opacity:1" id="stop4233-0-2-27-7-5" offset="0"/><stop style="stop-color:#bbb;stop-opacity:1" id="stop4235-2-4-9-8-3" offset="1"/></linearGradient><linearGradient id="linearGradient4330-3" x1="78" x2="77" y1="1297.362" y2="1209.362" gradientTransform="matrix(0.97669856,0,0,0.41307235,576.22959,-396.09025)" gradientUnits="userSpaceOnUse" xlink:href="#linearGradient4231-5-0-9-4-2-4"/><linearGradient id="linearGradient4231-5-0-9-4-2-4"><stop style="stop-color:#9ed106;stop-opacity:1" id="stop4233-0-2-27-7-5-0" offset="0"/><stop style="stop-color:#f4fed5;stop-opacity:1" id="stop4235-2-4-9-8-3-0" offset="1"/></linearGradient><linearGradient id="linearGradient4305-5" x1="78" x2="77" y1="1297.362" y2="1209.362" gradientTransform="matrix(1.1821711,0,0,1.3427183,-42.137102,1651.952)" gradientUnits="userSpaceOnUse" xlink:href="#linearGradient4231-5-0-9-4-3"/><linearGradient id="linearGradient4231-5-0-9-4-3"><stop style="stop-color:#848484;stop-opacity:1" id="stop4233-0-2-27-7-1" offset="0"/><stop style="stop-color:#f4f4f4;stop-opacity:1" id="stop4235-2-4-9-8-0" offset="1"/></linearGradient><linearGradient id="linearGradient4330-3-5" x1="78" x2="77" y1="1297.362" y2="1209.362" gradientTransform="matrix(1.1821711,0,0,0.41307235,-78.197027,4088.8658)" gradientUnits="userSpaceOnUse" xlink:href="#linearGradient4231-5-0-9-4-2-4-4"/><linearGradient id="linearGradient4231-5-0-9-4-2-4-4"><stop style="stop-color:#a1d700;stop-opacity:1" id="stop4233-0-2-27-7-5-0-2" offset="0"/><stop style="stop-color:#f4fed5;stop-opacity:1" id="stop4235-2-4-9-8-3-0-5" offset="1"/></linearGradient><linearGradient id="linearGradient8253" x1="78" x2="77" y1="1297.362" y2="1209.362" gradientTransform="matrix(0.97669847,0,0,1.3991107,576.22957,-817.29345)" gradientUnits="userSpaceOnUse" xlink:href="#linearGradient4231-5-0-9-4-2-4-4"/><linearGradient id="linearGradient4330-3-3" x1="78" x2="77" y1="1297.362" y2="1209.362" gradientTransform="matrix(0.97669856,0,0,0.41307235,116.22959,4088.8658)" gradientUnits="userSpaceOnUse" xlink:href="#linearGradient4231-5-0-9-4-2-4-9"/><linearGradient id="linearGradient4231-5-0-9-4-2-4-9"><stop style="stop-color:#9ed106;stop-opacity:1" id="stop4233-0-2-27-7-5-0-4" offset="0"/><stop style="stop-color:#f4fed5;stop-opacity:1" id="stop4235-2-4-9-8-3-0-56" offset="1"/></linearGradient><linearGradient id="linearGradient8412-5" x1="78" x2="77" y1="1297.362" y2="1209.362" gradientTransform="matrix(0.04359867,0,0,0.2722703,31.222194,4718.9664)" gradientUnits="userSpaceOnUse" xlink:href="#linearGradient4231-5-0-9-4-2-4-9-6"/><linearGradient id="linearGradient4231-5-0-9-4-2-4-9-6"><stop style="stop-color:#9ed106;stop-opacity:1" id="stop4233-0-2-27-7-5-0-4-6" offset="0"/><stop style="stop-color:#f4fed5;stop-opacity:1" id="stop4235-2-4-9-8-3-0-56-1" offset="1"/></linearGradient><linearGradient id="linearGradient8412-6" x1="78" x2="77" y1="1297.362" y2="1209.362" gradientTransform="matrix(0.04359867,0,0,0.2722703,31.222194,4718.9664)" gradientUnits="userSpaceOnUse" xlink:href="#linearGradient4231-5-0-9-4-2-4-9-8"/><linearGradient id="linearGradient4231-5-0-9-4-2-4-9-8"><stop style="stop-color:#9ed106;stop-opacity:1" id="stop4233-0-2-27-7-5-0-4-2" offset="0"/><stop style="stop-color:#f4fed5;stop-opacity:1" id="stop4235-2-4-9-8-3-0-56-5" offset="1"/></linearGradient><linearGradient id="linearGradient8412-51" x1="78" x2="77" y1="1297.362" y2="1209.362" gradientTransform="matrix(0.04359867,0,0,0.2722703,31.222194,4718.9664)" gradientUnits="userSpaceOnUse" xlink:href="#linearGradient4231-5-0-9-4-2-4-9-7"/><linearGradient id="linearGradient4231-5-0-9-4-2-4-9-7"><stop style="stop-color:#9ed106;stop-opacity:1" id="stop4233-0-2-27-7-5-0-4-60" offset="0"/><stop style="stop-color:#f4fed5;stop-opacity:1" id="stop4235-2-4-9-8-3-0-56-0" offset="1"/></linearGradient><linearGradient id="linearGradient4231-5-0-9-4-2-4-9-1"><stop style="stop-color:#9ed106;stop-opacity:1" id="stop4233-0-2-27-7-5-0-4-3" offset="0"/><stop style="stop-color:#f4fed5;stop-opacity:1" id="stop4235-2-4-9-8-3-0-56-8" offset="1"/></linearGradient><linearGradient id="linearGradient4221" x1="78" x2="77" y1="1297.362" y2="1209.362" gradientTransform="matrix(0.04359867,0,0,0.2722703,876.0762,-592.8922)" gradientUnits="userSpaceOnUse" xlink:href="#linearGradient4231-5-0-9-4-2-4-9-1"/><linearGradient id="linearGradient4221-9" x1="78" x2="77" y1="1297.362" y2="1209.362" gradientTransform="matrix(0.04359867,0,0,0.2722703,876.0762,-592.8922)" gradientUnits="userSpaceOnUse" xlink:href="#linearGradient4231-5-0-9-4-2-4-9-1-3"/><linearGradient id="linearGradient4231-5-0-9-4-2-4-9-1-3"><stop style="stop-color:#9ed106;stop-opacity:1" id="stop4233-0-2-27-7-5-0-4-3-1" offset="0"/><stop style="stop-color:#f4fed5;stop-opacity:1" id="stop4235-2-4-9-8-3-0-56-8-9" offset="1"/></linearGradient><linearGradient id="linearGradient4238" x1="78" x2="77" y1="1297.362" y2="1209.362" gradientTransform="matrix(0.04359867,0,0,0.2722703,876.07619,-134.87346)" gradientUnits="userSpaceOnUse" xlink:href="#linearGradient4231-5-0-9-4-2-4-9-1-3"/><linearGradient id="linearGradient4260" x1="78" x2="77" y1="1297.362" y2="1209.362" gradientTransform="matrix(0.04359867,0,0,0.2722703,559.22219,237.0103)" gradientUnits="userSpaceOnUse" xlink:href="#linearGradient4231-5-0-9-4-2-4-9"/><linearGradient id="linearGradient4231-5-0-9-4-2-4-9-7-3"><stop style="stop-color:#9ed106;stop-opacity:1" id="stop4233-0-2-27-7-5-0-4-60-4" offset="0"/><stop style="stop-color:#f4fed5;stop-opacity:1" id="stop4235-2-4-9-8-3-0-56-0-4" offset="1"/></linearGradient><linearGradient id="linearGradient4231-5-0-9-4-2-4-9-8-0"><stop style="stop-color:#9ed106;stop-opacity:1" id="stop4233-0-2-27-7-5-0-4-2-6" offset="0"/><stop style="stop-color:#f4fed5;stop-opacity:1" id="stop4235-2-4-9-8-3-0-56-5-6" offset="1"/></linearGradient><linearGradient id="linearGradient4231-5-0-9-4-2-4-9-6-8"><stop style="stop-color:#9ed106;stop-opacity:1" id="stop4233-0-2-27-7-5-0-4-6-4" offset="0"/><stop style="stop-color:#f4fed5;stop-opacity:1" id="stop4235-2-4-9-8-3-0-56-1-9" offset="1"/></linearGradient><linearGradient id="linearGradient4231-5-0-9-4-2-4-9-3"><stop style="stop-color:#9ed106;stop-opacity:1" id="stop4233-0-2-27-7-5-0-4-7" offset="0"/><stop style="stop-color:#f4fed5;stop-opacity:1" id="stop4235-2-4-9-8-3-0-56-88" offset="1"/></linearGradient><linearGradient id="linearGradient4645-0" x1="2113.333" x2="2114.667" y1="648.657" y2="427.324" gradientTransform="matrix(1.4320388,0,0,0.86486487,-1013.7088,84.196936)" gradientUnits="userSpaceOnUse" xlink:href="#linearGradient4639-1"/><linearGradient id="linearGradient4639-1"><stop style="stop-color:#9ed106;stop-opacity:1" id="stop4641-6" offset="0"/><stop style="stop-color:#9ed106;stop-opacity:0" id="stop4643-4" offset="1"/></linearGradient><linearGradient id="linearGradient4645-6" x1="2113.333" x2="2114.667" y1="648.657" y2="427.324" gradientTransform="matrix(1.4320388,0,0,0.86486487,-1013.7088,84.196936)" gradientUnits="userSpaceOnUse" xlink:href="#linearGradient4639-18"/><linearGradient id="linearGradient4639-18"><stop style="stop-color:#9ed106;stop-opacity:1" id="stop4641-9" offset="0"/><stop style="stop-color:#9ed106;stop-opacity:0" id="stop4643-8" offset="1"/></linearGradient><linearGradient id="linearGradient4645-4" x1="2113.333" x2="2114.667" y1="648.657" y2="427.324" gradientTransform="matrix(1.4320388,0,0,0.86486487,-1013.7088,84.196936)" gradientUnits="userSpaceOnUse" xlink:href="#linearGradient4639-3"/><linearGradient id="linearGradient4639-3"><stop style="stop-color:#9ed106;stop-opacity:1" id="stop4641-98" offset="0"/><stop style="stop-color:#9ed106;stop-opacity:0" id="stop4643-80" offset="1"/></linearGradient><linearGradient id="linearGradient8412-51-3" x1="78" x2="77" y1="1297.362" y2="1209.362" gradientTransform="matrix(0.04359867,0,0,0.2722703,31.222194,4718.9664)" gradientUnits="userSpaceOnUse" xlink:href="#linearGradient4231-5-0-9-4-2-4-9-7-31"/><linearGradient id="linearGradient4231-5-0-9-4-2-4-9-7-31"><stop style="stop-color:#9ed106;stop-opacity:1" id="stop4233-0-2-27-7-5-0-4-60-0" offset="0"/><stop style="stop-color:#f4fed5;stop-opacity:1" id="stop4235-2-4-9-8-3-0-56-0-8" offset="1"/></linearGradient><linearGradient id="linearGradient8412-6-1" x1="78" x2="77" y1="1297.362" y2="1209.362" gradientTransform="matrix(0.04359867,0,0,0.2722703,31.222194,4718.9664)" gradientUnits="userSpaceOnUse" xlink:href="#linearGradient4231-5-0-9-4-2-4-9-8-09"/><linearGradient id="linearGradient4231-5-0-9-4-2-4-9-8-09"><stop style="stop-color:#9ed106;stop-opacity:1" id="stop4233-0-2-27-7-5-0-4-2-2" offset="0"/><stop style="stop-color:#f4fed5;stop-opacity:1" id="stop4235-2-4-9-8-3-0-56-5-4" offset="1"/></linearGradient><linearGradient id="linearGradient8412-5-9" x1="78" x2="77" y1="1297.362" y2="1209.362" gradientTransform="matrix(0.04359867,0,0,0.2722703,31.222194,4718.9664)" gradientUnits="userSpaceOnUse" xlink:href="#linearGradient4231-5-0-9-4-2-4-9-6-1"/><linearGradient id="linearGradient4231-5-0-9-4-2-4-9-6-1"><stop style="stop-color:#9ed106;stop-opacity:1" id="stop4233-0-2-27-7-5-0-4-6-5" offset="0"/><stop style="stop-color:#f4fed5;stop-opacity:1" id="stop4235-2-4-9-8-3-0-56-1-7" offset="1"/></linearGradient><linearGradient id="linearGradient4260-3" x1="78" x2="77" y1="1297.362" y2="1209.362" gradientTransform="matrix(0.04359867,0,0,0.2722703,2245.2222,237.40614)" gradientUnits="userSpaceOnUse" xlink:href="#linearGradient4231-5-0-9-4-2-4-9-34"/><linearGradient id="linearGradient4231-5-0-9-4-2-4-9-34"><stop style="stop-color:#9ed106;stop-opacity:1" id="stop4233-0-2-27-7-5-0-4-22" offset="0"/><stop style="stop-color:#f4fed5;stop-opacity:1" id="stop4235-2-4-9-8-3-0-56-01" offset="1"/></linearGradient><linearGradient id="linearGradient8253-2" x1="78" x2="77" y1="1297.362" y2="1209.362" gradientTransform="matrix(0.97669847,0,0,1.3991107,2262.2296,-816.89761)" gradientUnits="userSpaceOnUse" xlink:href="#linearGradient4231-5-0-9-4-2-4-4-7"/><linearGradient id="linearGradient4231-5-0-9-4-2-4-4-7"><stop style="stop-color:#a1d700;stop-opacity:1" id="stop4233-0-2-27-7-5-0-2-7" offset="0"/><stop style="stop-color:#f4fed5;stop-opacity:1" id="stop4235-2-4-9-8-3-0-5-0" offset="1"/></linearGradient><linearGradient id="linearGradient4330-3-2" x1="78" x2="77" y1="1297.362" y2="1209.362" gradientTransform="matrix(0.97669856,0,0,0.41307235,2262.2296,-395.69441)" gradientUnits="userSpaceOnUse" xlink:href="#linearGradient4231-5-0-9-4-2-4-41"/><linearGradient id="linearGradient4231-5-0-9-4-2-4-41"><stop style="stop-color:#9ed106;stop-opacity:1" id="stop4233-0-2-27-7-5-0-0" offset="0"/><stop style="stop-color:#f4fed5;stop-opacity:1" id="stop4235-2-4-9-8-3-0-3" offset="1"/></linearGradient></defs><g id="g3886-7-1" transform="translate(-3635.6977,1248.1173)"><g style="font-size:42.23834229px;font-style:normal;font-variant:normal;font-weight:700;font-stretch:normal;text-align:start;line-height:125%;letter-spacing:0;word-spacing:0;writing-mode:lr-tb;text-anchor:start;fill:#fff;fill-opacity:1;stroke:none;font-family:Sans;-inkscape-font-specification:Sans Bold" id="text5511-0-8-9-2-6-7-9-7"><path id="path3085" d="m 3708.8702,-1206.6361 -6.641,0 -2.6399,-6.8679 -12.0858,0 -2.4955,6.8679 -6.476,0 11.7764,-30.2351 6.4554,0 z m -11.2402,-11.962 -4.1661,-11.2196 -4.0836,11.2196 z"/><path id="path3087" d="m 3726.5038,-1206.6361 0,-3.2793 c -0.7974,1.1688 -1.8458,2.09 -3.1451,2.7637 -1.2994,0.6737 -2.6709,1.0106 -4.1146,1.0106 -1.4712,0 -2.7911,-0.3231 -3.9598,-0.9694 -1.1687,-0.6462 -2.0143,-1.5537 -2.5368,-2.7224 -0.5225,-1.1687 -0.7837,-2.7842 -0.7837,-4.8466 l 0,-13.8595 5.7954,0 0,10.0646 c 0,3.0799 0.1065,4.967 0.3197,5.6613 0.2131,0.6944 0.6015,1.2444 1.1652,1.65 0.5638,0.4056 1.2787,0.6084 2.145,0.6084 0.9899,0 1.8767,-0.2716 2.6605,-0.8147 0.7837,-0.5431 1.3199,-1.2168 1.6087,-2.0211 0.2887,-0.8044 0.433,-2.774 0.4331,-5.9089 l 0,-9.2396 5.7954,0 0,21.9029 z"/><path id="path3089" d="m 3747.953,-1228.539 0,4.6198 -3.9598,0 0,8.8272 c 0,1.7874 0.038,2.8289 0.1134,3.1245 0.076,0.2957 0.2475,0.5397 0.5156,0.7322 0.2681,0.1925 0.5947,0.2887 0.9797,0.2887 0.5362,0 1.313,-0.1856 2.3305,-0.5568 l 0.495,4.4961 c -1.3475,0.5774 -2.8737,0.8662 -4.5786,0.8662 -1.045,0 -1.9868,-0.1753 -2.8255,-0.5259 -0.8387,-0.3507 -1.454,-0.8044 -1.8459,-1.3612 -0.3918,-0.5569 -0.6634,-1.3097 -0.8146,-2.2584 -0.1238,-0.6737 -0.1857,-2.0349 -0.1857,-4.0836 l 0,-9.549 -2.6605,0 0,-4.6198 2.6605,0 0,-4.3517 5.8161,-3.3824 0,7.7341 z"/><path id="path3091" d="m 3750.6754,-1217.8969 c 0,-1.9249 0.4744,-3.788 1.4231,-5.5892 0.9487,-1.8011 2.2927,-3.1761 4.032,-4.1248 1.7393,-0.9487 3.6814,-1.4231 5.8263,-1.4231 3.3136,0 6.0292,1.0759 8.1466,3.2277 2.1174,2.1518 3.1761,4.8708 3.1761,8.1569 0,3.3136 -1.069,6.0601 -3.2071,8.2393 -2.138,2.1793 -4.8295,3.269 -8.0743,3.269 -2.0075,0 -3.9221,-0.4538 -5.7439,-1.3612 -1.8218,-0.9075 -3.207,-2.2377 -4.1557,-3.9908 -0.9487,-1.7531 -1.4231,-3.8877 -1.4231,-6.4038 z m 5.9398,0.3093 c 0,2.1725 0.5156,3.8362 1.5468,4.9911 1.0312,1.155 2.303,1.7324 3.8155,1.7324 1.5124,0 2.7808,-0.5774 3.8051,-1.7324 1.0243,-1.1549 1.5365,-2.8324 1.5365,-5.0323 0,-2.1449 -0.5122,-3.7948 -1.5365,-4.9498 -1.0243,-1.1549 -2.2927,-1.7324 -3.8051,-1.7324 -1.5125,0 -2.7843,0.5775 -3.8155,1.7324 -1.0312,1.155 -1.5468,2.8186 -1.5468,4.991 z"/><path id="path3093" d="m 3777.59,-1206.6361 0,-30.2351 5.7954,0 0,10.8896 c 1.7874,-2.0349 3.9048,-3.0524 6.3522,-3.0524 2.6674,0 4.8742,0.9659 6.6204,2.8977 1.7461,1.9318 2.6192,4.7058 2.6193,8.3219 -1e-4,3.7398 -0.8903,6.6204 -2.6709,8.6415 -1.7806,2.0212 -3.9427,3.0318 -6.4863,3.0318 -1.2512,0 -2.4852,-0.3128 -3.702,-0.9384 -1.2169,-0.6256 -2.2653,-1.5503 -3.1452,-2.774 l 0,3.2174 z m 5.7541,-11.4258 c 0,2.2687 0.3575,3.9461 1.0725,5.0323 1.0037,1.5399 2.3374,2.3099 4.0011,2.3099 1.2787,0 2.3683,-0.5465 3.2689,-1.6396 0.9006,-1.0931 1.3509,-2.8152 1.3509,-5.1664 0,-2.5024 -0.4538,-4.307 -1.3612,-5.4138 -0.9075,-1.1068 -2.0693,-1.6603 -3.4855,-1.6603 -1.3887,0 -2.5437,0.5397 -3.4649,1.619 -0.9212,1.0794 -1.3818,2.719 -1.3818,4.9189 z"/><path id="path3095" d="m 3807.99,-1221.8568 -5.2591,-0.9487 c 0.5912,-2.1174 1.6086,-3.6848 3.0523,-4.7023 1.4437,-1.0174 3.5886,-1.5262 6.4348,-1.5262 2.5849,0 4.5098,0.306 5.7748,0.9178 1.2649,0.6119 2.1552,1.3887 2.6708,2.3305 0.5156,0.9419 0.7734,2.6709 0.7734,5.187 l -0.062,6.7647 c 0,1.925 0.093,3.3446 0.2785,4.2589 0.1855,0.9144 0.5327,1.894 1.0415,2.939 l -5.7336,0 c -0.1512,-0.385 -0.3368,-0.9556 -0.5568,-1.7118 -0.096,-0.3438 -0.165,-0.5706 -0.2062,-0.6806 -0.99,0.9624 -2.0487,1.6843 -3.1762,2.1655 -1.1274,0.4813 -2.3305,0.7219 -3.6092,0.7219 -2.2549,0 -4.032,-0.6119 -5.3314,-1.8356 -1.2993,-1.2237 -1.9489,-2.7705 -1.9489,-4.6404 0,-1.2375 0.2956,-2.3409 0.8868,-3.3102 0.5912,-0.9693 1.4196,-1.7118 2.4852,-2.2274 1.0656,-0.5156 2.6021,-0.9659 4.6095,-1.3509 2.7086,-0.5087 4.5854,-0.9831 5.6304,-1.4231 l 0,-0.5774 c 0,-1.1137 -0.275,-1.9078 -0.8249,-2.3821 -0.55,-0.4744 -1.5881,-0.7116 -3.1143,-0.7116 -1.0312,0 -1.8356,0.2028 -2.413,0.6084 -0.5775,0.4057 -1.045,1.1172 -1.4025,2.1346 z m 7.7547,4.7024 c -0.7425,0.2475 -1.918,0.5431 -3.5267,0.8868 -1.6087,0.3437 -2.6605,0.6806 -3.1555,1.0106 -0.7562,0.5362 -1.1344,1.2168 -1.1343,2.0418 -10e-5,0.8112 0.3024,1.5124 0.9074,2.1036 0.605,0.5913 1.375,0.8869 2.3099,0.8869 1.045,0 2.0418,-0.3438 2.9905,-1.0312 0.7012,-0.5225 1.1618,-1.1619 1.3819,-1.9181 0.1512,-0.495 0.2268,-1.4368 0.2268,-2.8255 z"/><path id="path3097" d="m 3832.9453,-1236.8712 0,11.1165 c 1.8699,-2.1862 4.1042,-3.2793 6.7029,-3.2793 1.3336,0 2.5367,0.2475 3.6092,0.7425 1.0724,0.495 1.8802,1.1275 2.4233,1.8974 0.5431,0.77 0.9143,1.6225 1.1137,2.5574 0.1994,0.935 0.2991,2.3856 0.2991,4.3517 l 0,12.8489 -5.7954,0 0,-11.5702 c 0,-2.2961 -0.11,-3.7536 -0.33,-4.3723 -0.22,-0.6187 -0.6084,-1.1103 -1.1653,-1.4746 -0.5568,-0.3644 -1.2546,-0.5466 -2.0933,-0.5466 -0.9625,0 -1.8218,0.2338 -2.578,0.7012 -0.7563,0.4675 -1.3097,1.1722 -1.6603,2.114 -0.3506,0.9419 -0.5259,2.334 -0.5259,4.1764 l 0,10.9721 -5.7954,0 0,-30.2351 z"/><path id="path3099" d="m 3872.915,-1206.6361 -5.7954,0 0,-11.1783 c 0,-2.3649 -0.1238,-3.8945 -0.3713,-4.5889 -0.2475,-0.6943 -0.6496,-1.234 -1.2065,-1.619 -0.5568,-0.385 -1.2271,-0.5775 -2.0108,-0.5775 -1.0038,0 -1.9043,0.275 -2.7018,0.825 -0.7975,0.55 -1.344,1.2787 -1.6396,2.1862 -0.2956,0.9074 -0.4435,2.5849 -0.4434,5.0323 l 0,9.9202 -5.7954,0 0,-21.9029 5.3829,0 0,3.2174 c 1.9111,-2.4749 4.3173,-3.7124 7.2184,-3.7124 1.2787,0 2.4474,0.2303 3.5062,0.6909 1.0586,0.4607 1.8595,1.0484 2.4027,1.7634 0.5431,0.715 0.9212,1.5262 1.1343,2.4337 0.2131,0.9074 0.3197,2.2068 0.3197,3.8979 z"/><path style="fill:#9ed106;fill-opacity:1" id="path3101" d="m 3878.7443,-1199.8443 0,-30.2874 2.4741,0 0,30.2874 z"/><path style="font-size:32.272995px;font-weight:400;fill:#fff;fill-opacity:1;-inkscape-font-specification:Sans" id="path3103" d="m 3884.1179,-1206.6361 8.8719,-23.1017 3.2935,0 9.455,23.1017 -3.4826,0 -2.6947,-6.9967 -9.6598,0 -2.5371,6.9967 z m 6.6657,-9.4865 7.8319,0 -2.411,-6.3979 c -0.7354,-1.9435 -1.2817,-3.5403 -1.6389,-4.7905 -0.2941,1.4813 -0.7091,2.9521 -1.2449,4.4123 z"/><path style="font-size:32.272995px;font-weight:400;fill:#fff;fill-opacity:1;-inkscape-font-specification:Sans" id="path3105" d="m 3907.8499,-1206.6361 0,-16.7353 2.5528,0 0,2.3795 c 1.2292,-1.8385 3.0046,-2.7577 5.3263,-2.7577 1.0085,0 1.9357,0.1812 2.7814,0.5436 0.8456,0.3625 1.4786,0.8379 1.8988,1.4262 0.4202,0.5883 0.7144,1.2869 0.8825,2.0958 0.105,0.5253 0.1576,1.4445 0.1576,2.7577 l 0,10.2902 -2.8365,0 0,-10.1799 c 0,-1.1556 -0.1103,-2.0196 -0.3309,-2.5922 -0.2207,-0.5725 -0.612,-1.0295 -1.174,-1.371 -0.5621,-0.3414 -1.2213,-0.5121 -1.9777,-0.5121 -1.2081,0 -2.2508,0.3834 -3.128,1.1503 -0.8772,0.7669 -1.3158,2.222 -1.3158,4.3651 l 0,9.1398 z"/><path style="font-size:32.272995px;font-weight:400;fill:#fff;fill-opacity:1;-inkscape-font-specification:Sans" id="path3107" d="m 3936.6718,-1206.6361 0,-2.1116 c -1.0611,1.6599 -2.6211,2.4898 -4.6802,2.4898 -1.3342,0 -2.5607,-0.3677 -3.6796,-1.1031 -1.1188,-0.7354 -1.9855,-1.7623 -2.6001,-3.0807 -0.6146,-1.3185 -0.9219,-2.8339 -0.9219,-4.5463 0,-1.6704 0.2784,-3.1858 0.8352,-4.5463 0.5568,-1.3604 1.392,-2.4031 2.5056,-3.128 1.1136,-0.7249 2.3585,-1.0873 3.7347,-1.0873 1.0085,0 1.9068,0.2127 2.6947,0.6382 0.7879,0.4255 1.4287,0.9796 1.9225,1.6625 l 0,-8.2889 2.8207,0 0,23.1017 z m -8.9665,-8.3519 c 0,2.1431 0.4518,3.7452 1.3552,4.8063 0.9035,1.061 1.9698,1.5916 3.199,1.5916 1.2396,0 2.2928,-0.5069 3.1595,-1.5207 0.8667,-1.0138 1.3001,-2.5607 1.3001,-4.6408 0,-2.2902 -0.4413,-3.9711 -1.3237,-5.0427 -0.8825,-1.0715 -1.9698,-1.6073 -3.262,-1.6073 -1.2607,0 -2.3138,0.5148 -3.1595,1.5443 -0.8457,1.0295 -1.2686,2.6526 -1.2686,4.8693 z"/><path style="font-size:32.272995px;font-weight:400;fill:#fff;fill-opacity:1;-inkscape-font-specification:Sans" id="path3109" d="m 3943.7473,-1206.6361 0,-16.7353 2.5528,0 0,2.5371 c 0.6514,-1.1871 1.2528,-1.9698 1.8044,-2.348 0.5515,-0.3782 1.1582,-0.5673 1.82,-0.5673 0.956,0 1.9278,0.3047 2.9153,0.914 l -0.977,2.6316 c -0.6934,-0.4097 -1.3867,-0.6146 -2.0801,-0.6146 -0.6198,0 -1.1766,0.1865 -1.6704,0.5594 -0.4937,0.373 -0.8457,0.8904 -1.0558,1.5522 -0.3151,1.0086 -0.4727,2.1117 -0.4727,3.3093 l 0,8.7616 z"/><path style="font-size:32.272995px;font-weight:400;fill:#fff;fill-opacity:1;-inkscape-font-specification:Sans" id="path3111" d="m 3953.5017,-1215.0038 c 0,-3.0991 0.8614,-5.3945 2.5843,-6.8863 1.4393,-1.2397 3.1937,-1.8595 5.2633,-1.8595 2.3007,0 4.1812,0.7538 5.6415,2.2613 1.4602,1.5076 2.1904,3.5903 2.1904,6.2482 0,2.1536 -0.3231,3.8476 -0.9691,5.082 -0.6462,1.2344 -1.5864,2.193 -2.8208,2.8759 -1.2344,0.6829 -2.5817,1.0243 -4.042,1.0243 -2.3427,0 -4.2363,-0.7512 -5.6809,-2.2534 -1.4445,-1.5023 -2.1667,-3.6665 -2.1667,-6.4925 z m 2.9153,0 c 0,2.1432 0.4675,3.7479 1.4025,4.8142 0.9349,1.0663 2.1116,1.5995 3.5298,1.5995 1.4077,0 2.5791,-0.5358 3.5141,-1.6074 0.935,-1.0715 1.4025,-2.7052 1.4025,-4.9008 0,-2.0696 -0.4701,-3.6375 -1.4104,-4.7039 -0.9402,-1.0663 -2.109,-1.5994 -3.5062,-1.5994 -1.4182,0 -2.5949,0.5305 -3.5298,1.5916 -0.935,1.061 -1.4025,2.6631 -1.4025,4.8062 z"/><path style="font-size:32.272995px;font-weight:400;fill:#fff;fill-opacity:1;-inkscape-font-specification:Sans" id="path3113" d="m 3972.5377,-1226.4758 0,-3.262 2.8365,0 0,3.262 z m 0,19.8397 0,-16.7353 2.8365,0 0,16.7353 z"/><path style="font-size:32.272995px;font-weight:400;fill:#fff;fill-opacity:1;-inkscape-font-specification:Sans" id="path3115" d="m 3990.5652,-1206.6361 0,-2.1116 c -1.0611,1.6599 -2.6212,2.4898 -4.6802,2.4898 -1.3342,0 -2.5608,-0.3677 -3.6796,-1.1031 -1.1188,-0.7354 -1.9855,-1.7623 -2.6001,-3.0807 -0.6146,-1.3185 -0.9219,-2.8339 -0.9219,-4.5463 0,-1.6704 0.2784,-3.1858 0.8352,-4.5463 0.5568,-1.3604 1.392,-2.4031 2.5056,-3.128 1.1136,-0.7249 2.3585,-1.0873 3.7347,-1.0873 1.0085,0 1.9068,0.2127 2.6947,0.6382 0.7879,0.4255 1.4287,0.9796 1.9225,1.6625 l 0,-8.2889 2.8207,0 0,23.1017 z m -8.9665,-8.3519 c 0,2.1431 0.4518,3.7452 1.3552,4.8063 0.9035,1.061 1.9698,1.5916 3.199,1.5916 1.2396,0 2.2928,-0.5069 3.1595,-1.5207 0.8667,-1.0138 1.3001,-2.5607 1.3001,-4.6408 0,-2.2902 -0.4413,-3.9711 -1.3237,-5.0427 -0.8825,-1.0715 -1.9698,-1.6073 -3.262,-1.6073 -1.2607,0 -2.3138,0.5148 -3.1595,1.5443 -0.8457,1.0295 -1.2686,2.6526 -1.2686,4.8693 z"/></g><path id="rect6364-4-9-3-5-8-0-4-5-4-1-8-4" d="m 3639.6977,-1244.1173 0,37.3634 34.3992,0 0,-37.3634 -34.3992,0 z m 14.4625,3.5857 1.6494,0 0,7.315 -3.2272,0 1.5778,-7.315 z m 3.9921,0.072 1.6494,0 1.5778,7.291 -3.2272,0 0,-7.291 z m -12.813,7.7452 23.116,0 0,1.3626 -1.1235,0 0,2.1036 -2.6535,0 0,-2.1036 -15.5382,0 0,2.1036 -2.6056,0 0,-2.1036 -1.1952,0 0,-1.3626 z m 6.2391,3.2511 4.2312,0 0,18.8132 -8.1755,0 3.9443,-18.8132 z m 6.5739,0 4.2312,0 3.9443,18.8132 -8.1755,0 0,-18.8132 z" style="fill:#fff;fill-opacity:1;stroke:none"/></g></svg>