<svg xmlns="http://www.w3.org/2000/svg" xmlns:svg="http://www.w3.org/2000/svg" xmlns:xlink="http://www.w3.org/1999/xlink" id="svg3071" width="55.416" height="59.625" version="1.1"><metadata id="metadata3077"/><defs id="defs3075"><linearGradient id="linearGradient4258-6-8-9" x1="78" x2="77" y1="1297.362" y2="1209.362" gradientTransform="matrix(1.1821711,0,0,0.41307235,5667.0431,-6392.092)" gradientUnits="userSpaceOnUse" xlink:href="#linearGradient4231-5-0-9-4"/><linearGradient id="linearGradient4231-5-0-9-4"><stop style="stop-color:#848484;stop-opacity:1" id="stop4233-0-2-27-7" offset="0"/><stop style="stop-color:#f4f4f4;stop-opacity:1" id="stop4235-2-4-9-8" offset="1"/></linearGradient><linearGradient id="linearGradient4258-6-8-9-8" x1="78" x2="77" y1="1297.362" y2="1209.362" gradientTransform="matrix(1.1821711,0,0,0.41307235,5667.0431,-6392.092)" gradientUnits="userSpaceOnUse" xlink:href="#linearGradient4231-5-0-9-4-2"/><linearGradient id="linearGradient4231-5-0-9-4-2"><stop style="stop-color:gray;stop-opacity:1" id="stop4233-0-2-27-7-5" offset="0"/><stop style="stop-color:#bbb;stop-opacity:1" id="stop4235-2-4-9-8-3" offset="1"/></linearGradient><linearGradient id="linearGradient4330-3" x1="78" x2="77" y1="1297.362" y2="1209.362" gradientTransform="matrix(0.97669856,0,0,0.41307235,576.22959,-396.09025)" gradientUnits="userSpaceOnUse" xlink:href="#linearGradient4231-5-0-9-4-2-4"/><linearGradient id="linearGradient4231-5-0-9-4-2-4"><stop style="stop-color:#9ed106;stop-opacity:1" id="stop4233-0-2-27-7-5-0" offset="0"/><stop style="stop-color:#f4fed5;stop-opacity:1" id="stop4235-2-4-9-8-3-0" offset="1"/></linearGradient><linearGradient id="linearGradient4305-5" x1="78" x2="77" y1="1297.362" y2="1209.362" gradientTransform="matrix(1.1821711,0,0,1.3427183,-42.137102,1651.952)" gradientUnits="userSpaceOnUse" xlink:href="#linearGradient4231-5-0-9-4-3"/><linearGradient id="linearGradient4231-5-0-9-4-3"><stop style="stop-color:#848484;stop-opacity:1" id="stop4233-0-2-27-7-1" offset="0"/><stop style="stop-color:#f4f4f4;stop-opacity:1" id="stop4235-2-4-9-8-0" offset="1"/></linearGradient><linearGradient id="linearGradient4330-3-5" x1="78" x2="77" y1="1297.362" y2="1209.362" gradientTransform="matrix(1.1821711,0,0,0.41307235,-78.197027,4088.8658)" gradientUnits="userSpaceOnUse" xlink:href="#linearGradient4231-5-0-9-4-2-4-4"/><linearGradient id="linearGradient4231-5-0-9-4-2-4-4"><stop style="stop-color:#a1d700;stop-opacity:1" id="stop4233-0-2-27-7-5-0-2" offset="0"/><stop style="stop-color:#f4fed5;stop-opacity:1" id="stop4235-2-4-9-8-3-0-5" offset="1"/></linearGradient><linearGradient id="linearGradient8253" x1="78" x2="77" y1="1297.362" y2="1209.362" gradientTransform="matrix(0.97669847,0,0,1.3991107,576.22957,-817.29345)" gradientUnits="userSpaceOnUse" xlink:href="#linearGradient4231-5-0-9-4-2-4-4"/><linearGradient id="linearGradient4330-3-3" x1="78" x2="77" y1="1297.362" y2="1209.362" gradientTransform="matrix(0.97669856,0,0,0.41307235,116.22959,4088.8658)" gradientUnits="userSpaceOnUse" xlink:href="#linearGradient4231-5-0-9-4-2-4-9"/><linearGradient id="linearGradient4231-5-0-9-4-2-4-9"><stop style="stop-color:#9ed106;stop-opacity:1" id="stop4233-0-2-27-7-5-0-4" offset="0"/><stop style="stop-color:#f4fed5;stop-opacity:1" id="stop4235-2-4-9-8-3-0-56" offset="1"/></linearGradient><linearGradient id="linearGradient8412-5" x1="78" x2="77" y1="1297.362" y2="1209.362" gradientTransform="matrix(0.04359867,0,0,0.2722703,31.222194,4718.9664)" gradientUnits="userSpaceOnUse" xlink:href="#linearGradient4231-5-0-9-4-2-4-9-6"/><linearGradient id="linearGradient4231-5-0-9-4-2-4-9-6"><stop style="stop-color:#9ed106;stop-opacity:1" id="stop4233-0-2-27-7-5-0-4-6" offset="0"/><stop style="stop-color:#f4fed5;stop-opacity:1" id="stop4235-2-4-9-8-3-0-56-1" offset="1"/></linearGradient><linearGradient id="linearGradient8412-6" x1="78" x2="77" y1="1297.362" y2="1209.362" gradientTransform="matrix(0.04359867,0,0,0.2722703,31.222194,4718.9664)" gradientUnits="userSpaceOnUse" xlink:href="#linearGradient4231-5-0-9-4-2-4-9-8"/><linearGradient id="linearGradient4231-5-0-9-4-2-4-9-8"><stop style="stop-color:#9ed106;stop-opacity:1" id="stop4233-0-2-27-7-5-0-4-2" offset="0"/><stop style="stop-color:#f4fed5;stop-opacity:1" id="stop4235-2-4-9-8-3-0-56-5" offset="1"/></linearGradient><linearGradient id="linearGradient8412-51" x1="78" x2="77" y1="1297.362" y2="1209.362" gradientTransform="matrix(0.04359867,0,0,0.2722703,31.222194,4718.9664)" gradientUnits="userSpaceOnUse" xlink:href="#linearGradient4231-5-0-9-4-2-4-9-7"/><linearGradient id="linearGradient4231-5-0-9-4-2-4-9-7"><stop style="stop-color:#9ed106;stop-opacity:1" id="stop4233-0-2-27-7-5-0-4-60" offset="0"/><stop style="stop-color:#f4fed5;stop-opacity:1" id="stop4235-2-4-9-8-3-0-56-0" offset="1"/></linearGradient><linearGradient id="linearGradient4231-5-0-9-4-2-4-9-1"><stop style="stop-color:#9ed106;stop-opacity:1" id="stop4233-0-2-27-7-5-0-4-3" offset="0"/><stop style="stop-color:#f4fed5;stop-opacity:1" id="stop4235-2-4-9-8-3-0-56-8" offset="1"/></linearGradient><linearGradient id="linearGradient4221" x1="78" x2="77" y1="1297.362" y2="1209.362" gradientTransform="matrix(0.04359867,0,0,0.2722703,876.0762,-592.8922)" gradientUnits="userSpaceOnUse" xlink:href="#linearGradient4231-5-0-9-4-2-4-9-1"/><linearGradient id="linearGradient4221-9" x1="78" x2="77" y1="1297.362" y2="1209.362" gradientTransform="matrix(0.04359867,0,0,0.2722703,876.0762,-592.8922)" gradientUnits="userSpaceOnUse" xlink:href="#linearGradient4231-5-0-9-4-2-4-9-1-3"/><linearGradient id="linearGradient4231-5-0-9-4-2-4-9-1-3"><stop style="stop-color:#9ed106;stop-opacity:1" id="stop4233-0-2-27-7-5-0-4-3-1" offset="0"/><stop style="stop-color:#f4fed5;stop-opacity:1" id="stop4235-2-4-9-8-3-0-56-8-9" offset="1"/></linearGradient><linearGradient id="linearGradient4238" x1="78" x2="77" y1="1297.362" y2="1209.362" gradientTransform="matrix(0.04359867,0,0,0.2722703,876.07619,-134.87346)" gradientUnits="userSpaceOnUse" xlink:href="#linearGradient4231-5-0-9-4-2-4-9-1-3"/><linearGradient id="linearGradient4260" x1="78" x2="77" y1="1297.362" y2="1209.362" gradientTransform="matrix(0.04359867,0,0,0.2722703,559.22219,237.0103)" gradientUnits="userSpaceOnUse" xlink:href="#linearGradient4231-5-0-9-4-2-4-9"/><linearGradient id="linearGradient4231-5-0-9-4-2-4-9-7-3"><stop style="stop-color:#9ed106;stop-opacity:1" id="stop4233-0-2-27-7-5-0-4-60-4" offset="0"/><stop style="stop-color:#f4fed5;stop-opacity:1" id="stop4235-2-4-9-8-3-0-56-0-4" offset="1"/></linearGradient><linearGradient id="linearGradient4231-5-0-9-4-2-4-9-8-0"><stop style="stop-color:#9ed106;stop-opacity:1" id="stop4233-0-2-27-7-5-0-4-2-6" offset="0"/><stop style="stop-color:#f4fed5;stop-opacity:1" id="stop4235-2-4-9-8-3-0-56-5-6" offset="1"/></linearGradient><linearGradient id="linearGradient4231-5-0-9-4-2-4-9-6-8"><stop style="stop-color:#9ed106;stop-opacity:1" id="stop4233-0-2-27-7-5-0-4-6-4" offset="0"/><stop style="stop-color:#f4fed5;stop-opacity:1" id="stop4235-2-4-9-8-3-0-56-1-9" offset="1"/></linearGradient><linearGradient id="linearGradient4231-5-0-9-4-2-4-9-3"><stop style="stop-color:#9ed106;stop-opacity:1" id="stop4233-0-2-27-7-5-0-4-7" offset="0"/><stop style="stop-color:#f4fed5;stop-opacity:1" id="stop4235-2-4-9-8-3-0-56-88" offset="1"/></linearGradient><linearGradient id="linearGradient4645-0" x1="2113.333" x2="2114.667" y1="648.657" y2="427.324" gradientTransform="matrix(1.4320388,0,0,0.86486487,-1013.7088,84.196936)" gradientUnits="userSpaceOnUse" xlink:href="#linearGradient4639-1"/><linearGradient id="linearGradient4639-1"><stop style="stop-color:#9ed106;stop-opacity:1" id="stop4641-6" offset="0"/><stop style="stop-color:#9ed106;stop-opacity:0" id="stop4643-4" offset="1"/></linearGradient><linearGradient id="linearGradient4645-6" x1="2113.333" x2="2114.667" y1="648.657" y2="427.324" gradientTransform="matrix(1.4320388,0,0,0.86486487,-1013.7088,84.196936)" gradientUnits="userSpaceOnUse" xlink:href="#linearGradient4639-18"/><linearGradient id="linearGradient4639-18"><stop style="stop-color:#9ed106;stop-opacity:1" id="stop4641-9" offset="0"/><stop style="stop-color:#9ed106;stop-opacity:0" id="stop4643-8" offset="1"/></linearGradient><linearGradient id="linearGradient4645-4" x1="2113.333" x2="2114.667" y1="648.657" y2="427.324" gradientTransform="matrix(1.4320388,0,0,0.86486487,-1013.7088,84.196936)" gradientUnits="userSpaceOnUse" xlink:href="#linearGradient4639-3"/><linearGradient id="linearGradient4639-3"><stop style="stop-color:#9ed106;stop-opacity:1" id="stop4641-98" offset="0"/><stop style="stop-color:#9ed106;stop-opacity:0" id="stop4643-80" offset="1"/></linearGradient><linearGradient id="linearGradient8412-51-3" x1="78" x2="77" y1="1297.362" y2="1209.362" gradientTransform="matrix(0.04359867,0,0,0.2722703,31.222194,4718.9664)" gradientUnits="userSpaceOnUse" xlink:href="#linearGradient4231-5-0-9-4-2-4-9-7-31"/><linearGradient id="linearGradient4231-5-0-9-4-2-4-9-7-31"><stop style="stop-color:#9ed106;stop-opacity:1" id="stop4233-0-2-27-7-5-0-4-60-0" offset="0"/><stop style="stop-color:#f4fed5;stop-opacity:1" id="stop4235-2-4-9-8-3-0-56-0-8" offset="1"/></linearGradient><linearGradient id="linearGradient8412-6-1" x1="78" x2="77" y1="1297.362" y2="1209.362" gradientTransform="matrix(0.04359867,0,0,0.2722703,31.222194,4718.9664)" gradientUnits="userSpaceOnUse" xlink:href="#linearGradient4231-5-0-9-4-2-4-9-8-09"/><linearGradient id="linearGradient4231-5-0-9-4-2-4-9-8-09"><stop style="stop-color:#9ed106;stop-opacity:1" id="stop4233-0-2-27-7-5-0-4-2-2" offset="0"/><stop style="stop-color:#f4fed5;stop-opacity:1" id="stop4235-2-4-9-8-3-0-56-5-4" offset="1"/></linearGradient><linearGradient id="linearGradient8412-5-9" x1="78" x2="77" y1="1297.362" y2="1209.362" gradientTransform="matrix(0.04359867,0,0,0.2722703,31.222194,4718.9664)" gradientUnits="userSpaceOnUse" xlink:href="#linearGradient4231-5-0-9-4-2-4-9-6-1"/><linearGradient id="linearGradient4231-5-0-9-4-2-4-9-6-1"><stop style="stop-color:#9ed106;stop-opacity:1" id="stop4233-0-2-27-7-5-0-4-6-5" offset="0"/><stop style="stop-color:#f4fed5;stop-opacity:1" id="stop4235-2-4-9-8-3-0-56-1-7" offset="1"/></linearGradient><linearGradient id="linearGradient4260-3" x1="78" x2="77" y1="1297.362" y2="1209.362" gradientTransform="matrix(0.04359867,0,0,0.2722703,2245.2222,237.40614)" gradientUnits="userSpaceOnUse" xlink:href="#linearGradient4231-5-0-9-4-2-4-9-34"/><linearGradient id="linearGradient4231-5-0-9-4-2-4-9-34"><stop style="stop-color:#9ed106;stop-opacity:1" id="stop4233-0-2-27-7-5-0-4-22" offset="0"/><stop style="stop-color:#f4fed5;stop-opacity:1" id="stop4235-2-4-9-8-3-0-56-01" offset="1"/></linearGradient><linearGradient id="linearGradient8253-2" x1="78" x2="77" y1="1297.362" y2="1209.362" gradientTransform="matrix(0.97669847,0,0,1.3991107,2262.2296,-816.89761)" gradientUnits="userSpaceOnUse" xlink:href="#linearGradient4231-5-0-9-4-2-4-4-7"/><linearGradient id="linearGradient4231-5-0-9-4-2-4-4-7"><stop style="stop-color:#a1d700;stop-opacity:1" id="stop4233-0-2-27-7-5-0-2-7" offset="0"/><stop style="stop-color:#f4fed5;stop-opacity:1" id="stop4235-2-4-9-8-3-0-5-0" offset="1"/></linearGradient><linearGradient id="linearGradient4330-3-2" x1="78" x2="77" y1="1297.362" y2="1209.362" gradientTransform="matrix(0.97669856,0,0,0.41307235,2262.2296,-395.69441)" gradientUnits="userSpaceOnUse" xlink:href="#linearGradient4231-5-0-9-4-2-4-41"/><linearGradient id="linearGradient4231-5-0-9-4-2-4-41"><stop style="stop-color:#9ed106;stop-opacity:1" id="stop4233-0-2-27-7-5-0-0" offset="0"/><stop style="stop-color:#f4fed5;stop-opacity:1" id="stop4235-2-4-9-8-3-0-3" offset="1"/></linearGradient></defs><path style="fill:#999;fill-opacity:1;stroke:none" id="path3294-4" d="m -1.125e-7,3.4065522e-6 26.3752931125,0 L 55.416174,31.987061 l 0,27.63794"/><g style="font-size:14.32632065px;font-style:normal;font-weight:400;line-height:125%;letter-spacing:0;word-spacing:0;fill:#000;fill-opacity:.39230772;stroke:none;font-family:Sans" id="text4064-2" transform="matrix(0.67502962,0.73779063,-0.73779063,0.67502962,0,0)"><path style="font-weight:700;fill:#000;fill-opacity:.39230772;-inkscape-font-specification:Sans Bold" id="path3849" d="m 24.568695,-8.610127 0,-1.727833 4.462985,0 0,4.0852402 c -0.433717,0.4197174 -1.062125,0.7893007 -1.885226,1.1087509 -0.823118,0.3194508 -1.656721,0.4791761 -2.500811,0.4791763 -1.072613,-2e-7 -2.007647,-0.2250146 -2.805104,-0.6750439 -0.797464,-0.4500284 -1.396725,-1.0935929 -1.797786,-1.9306956 -0.401063,-0.8370978 -0.601594,-1.7476484 -0.601593,-2.7316549 -1e-6,-1.067938 0.223848,-2.016963 0.671546,-2.847076 0.447696,-0.830097 1.102919,-1.466666 1.965672,-1.90971 0.657552,-0.340426 1.475998,-0.510644 2.455341,-0.510655 1.273133,1.1e-5 2.267627,0.266997 2.983484,0.800959 0.71584,0.533982 1.176362,1.271983 1.381567,2.214004 l -2.056611,0.38474 c -0.144577,-0.503652 -0.416226,-0.901216 -0.814949,-1.192694 -0.398738,-0.291461 -0.896567,-0.437196 -1.493491,-0.437204 -0.904727,8e-6 -1.624074,0.286814 -2.158042,0.860418 -0.533976,0.57362 -0.800962,1.424711 -0.800959,2.553275 -3e-6,1.2171819 0.270481,2.1300642 0.811452,2.7386499 0.540964,0.6085907 1.249817,0.9128848 2.126563,0.9128832 0.433701,1.6e-6 0.868573,-0.085108 1.304619,-0.2553275 0.436031,-0.1702163 0.810278,-0.3765767 1.122741,-0.6190817 l 0,-1.3011209 z"/><path style="font-weight:700;fill:#000;fill-opacity:.39230772;-inkscape-font-specification:Sans Bold" id="path3851" d="m 30.920404,-13.275975 0,-1.818771 1.965672,0 0,1.818771 z m 0,8.4363005 0,-7.4289805 1.965672,0 0,7.4289805 z"/><path style="font-weight:700;fill:#000;fill-opacity:.39230772;-inkscape-font-specification:Sans Bold" id="path3853" d="m 38.300417,-12.268655 0,1.566941 -1.343092,0 0,2.9939773 c -3e-6,0.6062593 0.01282,0.9595203 0.03847,1.059784 0.02565,0.1002673 0.08394,0.1830446 0.174882,0.2483322 0.09093,0.065291 0.201693,0.097935 0.332275,0.097934 0.181873,1.5e-6 0.445362,-0.062956 0.790466,-0.1888724 l 0.167887,1.5249697 c -0.457029,0.1958676 -0.974679,0.2938013 -1.552951,0.2938015 -0.35443,-2e-7 -0.673881,-0.05946 -0.958353,-0.1783795 -0.284476,-0.1189195 -0.493168,-0.2728154 -0.626077,-0.4616881 -0.132911,-0.1888717 -0.225016,-0.4441989 -0.276313,-0.7659824 -0.04197,-0.2285108 -0.06296,-0.6901984 -0.06296,-1.3850642 l 0,-3.2388119 -0.90239,0 0,-1.566941 0.90239,0 0,-1.476003 1.972668,-1.147225 0,2.623228 z"/><path id="path3855" d="m 39.797406,-4.8396745 0,-10.2550715 1.357083,0 0,4.211155 5.330398,0 0,-4.211155 1.357084,0 0,10.2550715 -1.357084,0 0,-4.8337341 -5.330398,0 0,4.8337341 z"/><path id="path3857" d="m 54.81626,-4.8396745 0,-1.0912627 c -0.578282,0.8394331 -1.364083,1.2591491 -2.357408,1.2591493 -0.438373,-2e-7 -0.847596,-0.083943 -1.22767,-0.2518299 -0.380079,-0.1678863 -0.662221,-0.3789102 -0.846428,-0.6330722 -0.18421,-0.2541607 -0.313623,-0.56545 -0.388238,-0.9338691 -0.0513,-0.2471644 -0.07695,-0.6388994 -0.07695,-1.175206 l 0,-4.6028899 1.259149,0 0,4.120216 c -2e-6,0.6575584 0.02565,1.100592 0.07695,1.3291021 0.07928,0.3311112 0.247164,0.591102 0.50366,0.779973 0.25649,0.1888734 0.573609,0.2833095 0.951357,0.2833086 0.377741,9e-7 0.732168,-0.096767 1.063282,-0.2903039 0.331104,-0.1935345 0.565446,-0.4570229 0.703025,-0.7904659 0.137568,-0.3334391 0.206355,-0.8172784 0.20636,-1.4515193 l 0,-3.9803106 1.25915,0 0,7.4289805 z"/><path id="path3859" d="m 59.083376,-4.8396745 -1.168211,0 0,-10.2550715 1.259149,0 0,3.658528 c 0.531638,-0.666875 1.210179,-1.000316 2.035625,-1.000324 0.45702,8e-6 0.889561,0.09211 1.297623,0.276314 0.408052,0.184216 0.743825,0.44304 1.00732,0.776475 0.263482,0.333448 0.469842,0.735675 0.619082,1.206685 0.149225,0.4710196 0.223841,0.9746788 0.223848,1.5109788 -7e-6,1.2731424 -0.314794,2.2571432 -0.944362,2.9520055 -0.62958,0.694864 -1.385069,1.0422956 -2.266468,1.0422958 -0.876745,-2e-7 -1.564613,-0.3660858 -2.063606,-1.098258 z m -0.01399,-3.7704525 c -2e-6,0.8907344 0.12125,1.5342989 0.363755,1.9306955 0.396396,0.6482299 0.932699,0.9723439 1.608913,0.9723431 0.55029,8e-7 1.025968,-0.2390041 1.427035,-0.7170156 0.401057,-0.4780083 0.601588,-1.1903596 0.601594,-2.1370561 -6e-6,-0.9700066 -0.192376,-1.6858559 -0.57711,-2.1475489 -0.384745,-0.461682 -0.849931,-0.692526 -1.395557,-0.692532 -0.550299,6e-6 -1.025977,0.239011 -1.427036,0.717015 -0.401065,0.478016 -0.601596,1.1693816 -0.601594,2.074099 z"/></g></svg>