<svg xmlns="http://www.w3.org/2000/svg" xmlns:svg="http://www.w3.org/2000/svg" xmlns:xlink="http://www.w3.org/1999/xlink" id="svg3071" width="139.008" height="139.01" version="1.1"><metadata id="metadata3077"/><defs id="defs3075"><linearGradient id="linearGradient4258-6-8-9" x1="78" x2="77" y1="1297.362" y2="1209.362" gradientTransform="matrix(1.1821711,0,0,0.41307235,5667.0431,-6392.092)" gradientUnits="userSpaceOnUse" xlink:href="#linearGradient4231-5-0-9-4"/><linearGradient id="linearGradient4231-5-0-9-4"><stop style="stop-color:#848484;stop-opacity:1" id="stop4233-0-2-27-7" offset="0"/><stop style="stop-color:#f4f4f4;stop-opacity:1" id="stop4235-2-4-9-8" offset="1"/></linearGradient><linearGradient id="linearGradient4258-6-8-9-8" x1="78" x2="77" y1="1297.362" y2="1209.362" gradientTransform="matrix(1.1821711,0,0,0.41307235,5667.0431,-6392.092)" gradientUnits="userSpaceOnUse" xlink:href="#linearGradient4231-5-0-9-4-2"/><linearGradient id="linearGradient4231-5-0-9-4-2"><stop style="stop-color:gray;stop-opacity:1" id="stop4233-0-2-27-7-5" offset="0"/><stop style="stop-color:#bbb;stop-opacity:1" id="stop4235-2-4-9-8-3" offset="1"/></linearGradient><linearGradient id="linearGradient4330-3" x1="78" x2="77" y1="1297.362" y2="1209.362" gradientTransform="matrix(0.97669856,0,0,0.41307235,576.22959,-396.09025)" gradientUnits="userSpaceOnUse" xlink:href="#linearGradient4231-5-0-9-4-2-4"/><linearGradient id="linearGradient4231-5-0-9-4-2-4"><stop style="stop-color:#9ed106;stop-opacity:1" id="stop4233-0-2-27-7-5-0" offset="0"/><stop style="stop-color:#f4fed5;stop-opacity:1" id="stop4235-2-4-9-8-3-0" offset="1"/></linearGradient><linearGradient id="linearGradient4305-5" x1="78" x2="77" y1="1297.362" y2="1209.362" gradientTransform="matrix(1.1821711,0,0,1.3427183,-42.137102,1651.952)" gradientUnits="userSpaceOnUse" xlink:href="#linearGradient4231-5-0-9-4-3"/><linearGradient id="linearGradient4231-5-0-9-4-3"><stop style="stop-color:#848484;stop-opacity:1" id="stop4233-0-2-27-7-1" offset="0"/><stop style="stop-color:#f4f4f4;stop-opacity:1" id="stop4235-2-4-9-8-0" offset="1"/></linearGradient><linearGradient id="linearGradient4330-3-5" x1="78" x2="77" y1="1297.362" y2="1209.362" gradientTransform="matrix(1.1821711,0,0,0.41307235,-78.197027,4088.8658)" gradientUnits="userSpaceOnUse" xlink:href="#linearGradient4231-5-0-9-4-2-4-4"/><linearGradient id="linearGradient4231-5-0-9-4-2-4-4"><stop style="stop-color:#a1d700;stop-opacity:1" id="stop4233-0-2-27-7-5-0-2" offset="0"/><stop style="stop-color:#f4fed5;stop-opacity:1" id="stop4235-2-4-9-8-3-0-5" offset="1"/></linearGradient><linearGradient id="linearGradient8253" x1="78" x2="77" y1="1297.362" y2="1209.362" gradientTransform="matrix(0.97669847,0,0,1.3991107,576.22957,-817.29345)" gradientUnits="userSpaceOnUse" xlink:href="#linearGradient4231-5-0-9-4-2-4-4"/><linearGradient id="linearGradient4330-3-3" x1="78" x2="77" y1="1297.362" y2="1209.362" gradientTransform="matrix(0.97669856,0,0,0.41307235,116.22959,4088.8658)" gradientUnits="userSpaceOnUse" xlink:href="#linearGradient4231-5-0-9-4-2-4-9"/><linearGradient id="linearGradient4231-5-0-9-4-2-4-9"><stop style="stop-color:#9ed106;stop-opacity:1" id="stop4233-0-2-27-7-5-0-4" offset="0"/><stop style="stop-color:#f4fed5;stop-opacity:1" id="stop4235-2-4-9-8-3-0-56" offset="1"/></linearGradient><linearGradient id="linearGradient8412-5" x1="78" x2="77" y1="1297.362" y2="1209.362" gradientTransform="matrix(0.04359867,0,0,0.2722703,31.222194,4718.9664)" gradientUnits="userSpaceOnUse" xlink:href="#linearGradient4231-5-0-9-4-2-4-9-6"/><linearGradient id="linearGradient4231-5-0-9-4-2-4-9-6"><stop style="stop-color:#9ed106;stop-opacity:1" id="stop4233-0-2-27-7-5-0-4-6" offset="0"/><stop style="stop-color:#f4fed5;stop-opacity:1" id="stop4235-2-4-9-8-3-0-56-1" offset="1"/></linearGradient><linearGradient id="linearGradient8412-6" x1="78" x2="77" y1="1297.362" y2="1209.362" gradientTransform="matrix(0.04359867,0,0,0.2722703,31.222194,4718.9664)" gradientUnits="userSpaceOnUse" xlink:href="#linearGradient4231-5-0-9-4-2-4-9-8"/><linearGradient id="linearGradient4231-5-0-9-4-2-4-9-8"><stop style="stop-color:#9ed106;stop-opacity:1" id="stop4233-0-2-27-7-5-0-4-2" offset="0"/><stop style="stop-color:#f4fed5;stop-opacity:1" id="stop4235-2-4-9-8-3-0-56-5" offset="1"/></linearGradient><linearGradient id="linearGradient8412-51" x1="78" x2="77" y1="1297.362" y2="1209.362" gradientTransform="matrix(0.04359867,0,0,0.2722703,31.222194,4718.9664)" gradientUnits="userSpaceOnUse" xlink:href="#linearGradient4231-5-0-9-4-2-4-9-7"/><linearGradient id="linearGradient4231-5-0-9-4-2-4-9-7"><stop style="stop-color:#9ed106;stop-opacity:1" id="stop4233-0-2-27-7-5-0-4-60" offset="0"/><stop style="stop-color:#f4fed5;stop-opacity:1" id="stop4235-2-4-9-8-3-0-56-0" offset="1"/></linearGradient><linearGradient id="linearGradient4231-5-0-9-4-2-4-9-1"><stop style="stop-color:#9ed106;stop-opacity:1" id="stop4233-0-2-27-7-5-0-4-3" offset="0"/><stop style="stop-color:#f4fed5;stop-opacity:1" id="stop4235-2-4-9-8-3-0-56-8" offset="1"/></linearGradient><linearGradient id="linearGradient4221" x1="78" x2="77" y1="1297.362" y2="1209.362" gradientTransform="matrix(0.04359867,0,0,0.2722703,876.0762,-592.8922)" gradientUnits="userSpaceOnUse" xlink:href="#linearGradient4231-5-0-9-4-2-4-9-1"/><linearGradient id="linearGradient4221-9" x1="78" x2="77" y1="1297.362" y2="1209.362" gradientTransform="matrix(0.04359867,0,0,0.2722703,876.0762,-592.8922)" gradientUnits="userSpaceOnUse" xlink:href="#linearGradient4231-5-0-9-4-2-4-9-1-3"/><linearGradient id="linearGradient4231-5-0-9-4-2-4-9-1-3"><stop style="stop-color:#9ed106;stop-opacity:1" id="stop4233-0-2-27-7-5-0-4-3-1" offset="0"/><stop style="stop-color:#f4fed5;stop-opacity:1" id="stop4235-2-4-9-8-3-0-56-8-9" offset="1"/></linearGradient><linearGradient id="linearGradient4238" x1="78" x2="77" y1="1297.362" y2="1209.362" gradientTransform="matrix(0.04359867,0,0,0.2722703,876.07619,-134.87346)" gradientUnits="userSpaceOnUse" xlink:href="#linearGradient4231-5-0-9-4-2-4-9-1-3"/><linearGradient id="linearGradient4260" x1="78" x2="77" y1="1297.362" y2="1209.362" gradientTransform="matrix(0.04359867,0,0,0.2722703,559.22219,237.0103)" gradientUnits="userSpaceOnUse" xlink:href="#linearGradient4231-5-0-9-4-2-4-9"/><linearGradient id="linearGradient4231-5-0-9-4-2-4-9-7-3"><stop style="stop-color:#9ed106;stop-opacity:1" id="stop4233-0-2-27-7-5-0-4-60-4" offset="0"/><stop style="stop-color:#f4fed5;stop-opacity:1" id="stop4235-2-4-9-8-3-0-56-0-4" offset="1"/></linearGradient><linearGradient id="linearGradient4231-5-0-9-4-2-4-9-8-0"><stop style="stop-color:#9ed106;stop-opacity:1" id="stop4233-0-2-27-7-5-0-4-2-6" offset="0"/><stop style="stop-color:#f4fed5;stop-opacity:1" id="stop4235-2-4-9-8-3-0-56-5-6" offset="1"/></linearGradient><linearGradient id="linearGradient4231-5-0-9-4-2-4-9-6-8"><stop style="stop-color:#9ed106;stop-opacity:1" id="stop4233-0-2-27-7-5-0-4-6-4" offset="0"/><stop style="stop-color:#f4fed5;stop-opacity:1" id="stop4235-2-4-9-8-3-0-56-1-9" offset="1"/></linearGradient><linearGradient id="linearGradient4231-5-0-9-4-2-4-9-3"><stop style="stop-color:#9ed106;stop-opacity:1" id="stop4233-0-2-27-7-5-0-4-7" offset="0"/><stop style="stop-color:#f4fed5;stop-opacity:1" id="stop4235-2-4-9-8-3-0-56-88" offset="1"/></linearGradient><linearGradient id="linearGradient4645-0" x1="2113.333" x2="2114.667" y1="648.657" y2="427.324" gradientTransform="matrix(1.4320388,0,0,0.86486487,-1013.7088,84.196936)" gradientUnits="userSpaceOnUse" xlink:href="#linearGradient4639-1"/><linearGradient id="linearGradient4639-1"><stop style="stop-color:#9ed106;stop-opacity:1" id="stop4641-6" offset="0"/><stop style="stop-color:#9ed106;stop-opacity:0" id="stop4643-4" offset="1"/></linearGradient><linearGradient id="linearGradient4645-6" x1="2113.333" x2="2114.667" y1="648.657" y2="427.324" gradientTransform="matrix(1.4320388,0,0,0.86486487,-1013.7088,84.196936)" gradientUnits="userSpaceOnUse" xlink:href="#linearGradient4639-18"/><linearGradient id="linearGradient4639-18"><stop style="stop-color:#9ed106;stop-opacity:1" id="stop4641-9" offset="0"/><stop style="stop-color:#9ed106;stop-opacity:0" id="stop4643-8" offset="1"/></linearGradient><linearGradient id="linearGradient4645-4" x1="2113.333" x2="2114.667" y1="648.657" y2="427.324" gradientTransform="matrix(1.4320388,0,0,0.86486487,-1013.7088,84.196936)" gradientUnits="userSpaceOnUse" xlink:href="#linearGradient4639-3"/><linearGradient id="linearGradient4639-3"><stop style="stop-color:#9ed106;stop-opacity:1" id="stop4641-98" offset="0"/><stop style="stop-color:#9ed106;stop-opacity:0" id="stop4643-80" offset="1"/></linearGradient><linearGradient id="linearGradient8412-51-3" x1="78" x2="77" y1="1297.362" y2="1209.362" gradientTransform="matrix(0.04359867,0,0,0.2722703,31.222194,4718.9664)" gradientUnits="userSpaceOnUse" xlink:href="#linearGradient4231-5-0-9-4-2-4-9-7-31"/><linearGradient id="linearGradient4231-5-0-9-4-2-4-9-7-31"><stop style="stop-color:#9ed106;stop-opacity:1" id="stop4233-0-2-27-7-5-0-4-60-0" offset="0"/><stop style="stop-color:#f4fed5;stop-opacity:1" id="stop4235-2-4-9-8-3-0-56-0-8" offset="1"/></linearGradient><linearGradient id="linearGradient8412-6-1" x1="78" x2="77" y1="1297.362" y2="1209.362" gradientTransform="matrix(0.04359867,0,0,0.2722703,31.222194,4718.9664)" gradientUnits="userSpaceOnUse" xlink:href="#linearGradient4231-5-0-9-4-2-4-9-8-09"/><linearGradient id="linearGradient4231-5-0-9-4-2-4-9-8-09"><stop style="stop-color:#9ed106;stop-opacity:1" id="stop4233-0-2-27-7-5-0-4-2-2" offset="0"/><stop style="stop-color:#f4fed5;stop-opacity:1" id="stop4235-2-4-9-8-3-0-56-5-4" offset="1"/></linearGradient><linearGradient id="linearGradient8412-5-9" x1="78" x2="77" y1="1297.362" y2="1209.362" gradientTransform="matrix(0.04359867,0,0,0.2722703,31.222194,4718.9664)" gradientUnits="userSpaceOnUse" xlink:href="#linearGradient4231-5-0-9-4-2-4-9-6-1"/><linearGradient id="linearGradient4231-5-0-9-4-2-4-9-6-1"><stop style="stop-color:#9ed106;stop-opacity:1" id="stop4233-0-2-27-7-5-0-4-6-5" offset="0"/><stop style="stop-color:#f4fed5;stop-opacity:1" id="stop4235-2-4-9-8-3-0-56-1-7" offset="1"/></linearGradient><linearGradient id="linearGradient4260-3" x1="78" x2="77" y1="1297.362" y2="1209.362" gradientTransform="matrix(0.04359867,0,0,0.2722703,2245.2222,237.40614)" gradientUnits="userSpaceOnUse" xlink:href="#linearGradient4231-5-0-9-4-2-4-9-34"/><linearGradient id="linearGradient4231-5-0-9-4-2-4-9-34"><stop style="stop-color:#9ed106;stop-opacity:1" id="stop4233-0-2-27-7-5-0-4-22" offset="0"/><stop style="stop-color:#f4fed5;stop-opacity:1" id="stop4235-2-4-9-8-3-0-56-01" offset="1"/></linearGradient><linearGradient id="linearGradient8253-2" x1="78" x2="77" y1="1297.362" y2="1209.362" gradientTransform="matrix(0.97669847,0,0,1.3991107,2262.2296,-816.89761)" gradientUnits="userSpaceOnUse" xlink:href="#linearGradient4231-5-0-9-4-2-4-4-7"/><linearGradient id="linearGradient4231-5-0-9-4-2-4-4-7"><stop style="stop-color:#a1d700;stop-opacity:1" id="stop4233-0-2-27-7-5-0-2-7" offset="0"/><stop style="stop-color:#f4fed5;stop-opacity:1" id="stop4235-2-4-9-8-3-0-5-0" offset="1"/></linearGradient><linearGradient id="linearGradient4330-3-2" x1="78" x2="77" y1="1297.362" y2="1209.362" gradientTransform="matrix(0.97669856,0,0,0.41307235,2262.2296,-395.69441)" gradientUnits="userSpaceOnUse" xlink:href="#linearGradient4231-5-0-9-4-2-4-41"/><linearGradient id="linearGradient4231-5-0-9-4-2-4-41"><stop style="stop-color:#9ed106;stop-opacity:1" id="stop4233-0-2-27-7-5-0-0" offset="0"/><stop style="stop-color:#f4fed5;stop-opacity:1" id="stop4235-2-4-9-8-3-0-3" offset="1"/></linearGradient></defs><rect style="opacity:.85185182000000004;fill:#fff;fill-opacity:1;stroke:none" id="rect3859" width="139.114" height="139.086" x=".03" y=".01" ry="0"/><path id="path3176-4-1-9-3-1-8-1-7-7-4" d="m 26.285797,80.94924 c -2.981033,-8.37122 -6.07765,-16.67548 -9.289851,-24.91286 1.168076,0.0245 2.117132,0.0367 2.847182,0.0367 0.803045,3e-5 1.752113,-0.0122 2.847189,-0.0367 l 5.110336,15.11197 2.135383,5.94988 c 0.462352,-0.90038 1.158937,-2.34525 2.089763,-4.33463 0.930799,-1.98937 1.596968,-3.45861 1.998505,-4.4077 -0.559715,-1.70341 -1.268475,-3.76581 -2.126263,-6.18714 -0.857818,-2.42132 -1.60916,-4.46541 -2.254024,-6.13238 1.034223,0.0245 1.940697,0.0367 2.719431,0.0367 0.863872,3e-5 1.770345,-0.0122 2.719432,-0.0367 0.571852,2.20231 1.204557,4.3803 1.898125,6.5339 1.022038,-2.20227 1.958939,-4.38027 2.810681,-6.5339 1.05855,0.0245 1.910262,0.0367 2.555163,0.0367 0.742197,3e-5 1.593909,-0.0122 2.55517,-0.0367 -0.778742,1.55746 -1.743013,3.5468 -2.892809,5.96812 -1.149855,2.42133 -2.077626,4.44114 -2.783312,6.0594 0.267656,0.87606 0.766527,2.36049 1.496595,4.45329 0.730031,2.0928 1.265391,3.57116 1.606106,4.43506 l 4.909575,-10.4397 3.558977,-7.81151 1.16808,-2.66466 c 1.168038,0.0245 2.104939,0.0367 2.810681,0.0367 0.778686,3e-5 1.72166,-0.0122 2.828939,-0.0367 l -3.431227,6.80767 -7.172719,14.71045 -1.606106,3.39474 c -1.301946,-0.0245 -2.415264,-0.0367 -3.339969,-0.0367 -0.97342,0 -2.092821,0.0122 -3.358219,0.0367 -0.717901,-2.45781 -1.508784,-4.87305 -2.372655,-7.24571 -1.155928,2.37266 -2.250996,4.7879 -3.285209,7.24571 -1.301938,-0.0245 -2.427423,-0.0367 -3.37648,-0.0367 -0.997742,0 -2.123227,0.0122 -3.37647,0.0367 z" style="font-size:40px;font-style:normal;font-variant:normal;font-weight:400;font-stretch:normal;text-align:start;line-height:125%;letter-spacing:0;word-spacing:0;writing-mode:lr-tb;text-anchor:start;fill:#7e8696;fill-opacity:1;stroke:none;font-family:Eras Demi ITC;-inkscape-font-specification:Eras Demi ITC"/><path id="path3178-2-6-3-8-3-01-1-7-6-8" d="m 50.588668,80.94924 c 1.265416,-2.23883 2.749848,-5.00692 4.453295,-8.3043 l 4.800064,-9.21684 c 1.496587,-2.84716 2.737663,-5.31108 3.723242,-7.39172 1.581761,0.0245 2.701163,0.0367 3.358219,0.0367 1.155898,3e-5 2.287466,-0.0122 3.394727,-0.0367 l 2.609913,7.46471 5.676124,15.44053 0.784807,2.00762 -2.737682,-0.0367 c -0.632734,0 -1.697382,0.0122 -3.193961,0.0367 -0.292038,-1.08288 -0.751362,-2.543 -1.377964,-4.38031 -0.62664,-1.83727 -1.158968,-3.32778 -1.596976,-4.47153 l -9.600131,0 c -1.423606,2.89587 -2.810689,5.84649 -4.161276,8.85184 l -2.974943,-0.0367 c -0.559705,0 -1.612189,0.0122 -3.157458,0.0367 z m 11.918033,-12.64809 6.990207,0 -2.865439,-8.43204 -1.478348,3.06621 z" style="font-size:40px;font-style:normal;font-variant:normal;font-weight:400;font-stretch:normal;text-align:start;line-height:125%;letter-spacing:0;word-spacing:0;writing-mode:lr-tb;text-anchor:start;fill:#7e8696;fill-opacity:1;stroke:none;font-family:Eras Demi ITC;-inkscape-font-specification:Eras Demi ITC"/><path id="path3180-3-8-1-9-5-2-5-7-2-5" d="m 81.615703,80.94924 0.474526,-4.12478 1.20458,-14.49144 0.419776,-6.29664 c 1.739951,0.0245 3.011443,0.0367 3.8145,0.0367 0.644871,3e-5 1.81903,-0.0122 3.522488,-0.0367 0.194667,0.98557 0.340678,1.68521 0.43803,2.09888 0.09732,0.41371 0.285917,1.07684 0.565777,1.98938 0.279845,0.91257 0.63878,2.01981 1.076825,3.3217 0.644864,1.97114 1.222819,3.91795 1.733868,5.84038 l 1.387083,5.21985 2.445666,-6.6982 3.558978,-8.70582 c 0.12166,-0.29197 0.24637,-0.62965 0.37415,-1.01292 0.12774,-0.38328 0.34371,-1.06768 0.64792,-2.05325 1.4479,0.0245 2.73765,0.0367 3.86925,0.0367 0.75436,3e-5 1.95893,-0.0122 3.61374,-0.0367 -0.17038,3.50424 -0.29814,7.37652 -0.38328,11.61688 -0.0852,4.24036 -0.12779,7.40692 -0.12776,9.49973 -3e-5,1.00988 0.0122,2.27534 0.0366,3.79625 -1.2046,-0.0245 -2.02591,-0.0367 -2.46391,-0.0367 -0.63273,0 -1.47228,0.0122 -2.51866,0.0367 0.073,-1.24107 0.12165,-2.26315 0.14601,-3.06622 l 0.31027,-10.85945 c 0.0364,-1.53306 0.0548,-3.04185 0.0548,-4.52628 l -0.0183,-1.47836 -6.734698,17.75843 -0.7848,2.17188 c -1.180264,-0.0245 -1.989393,-0.0367 -2.427412,-0.0367 -0.547549,0 -1.405356,0.0122 -2.573413,0.0367 L 90.139095,69.70651 c -0.109507,-0.40152 -0.36503,-1.24106 -0.766549,-2.51867 L 88.24097,63.46462 c -0.109507,-0.35285 -0.191638,-0.64185 -0.246388,-0.86695 -0.05476,-0.22509 -0.173388,-0.72699 -0.3559,-1.50574 l -0.237257,2.33617 c -0.06083,0.74223 -0.152106,1.9833 -0.273773,3.72326 l -0.711795,11.31572 c -0.02428,0.55969 -0.04261,1.38708 -0.05476,2.48216 l -2.354402,-0.0367 c -0.40153,0 -1.198492,0.0122 -2.390905,0.0367 z" style="font-size:40px;font-style:normal;font-variant:normal;font-weight:400;font-stretch:normal;text-align:start;line-height:125%;letter-spacing:0;word-spacing:0;writing-mode:lr-tb;text-anchor:start;fill:#7e8696;fill-opacity:1;stroke:none;font-family:Eras Demi ITC;-inkscape-font-specification:Eras Demi ITC"/><path id="path3182-2-5-9-3-9-5-2-7-9-1" d="m 115.25265,80.94924 0.32853,-4.32552 0.45627,-9.58191 0.21902,-6.95369 c 0.0122,-0.63269 0.0182,-1.27146 0.0182,-1.91638 0,-0.47451 -0.007,-1.18631 -0.0182,-2.13536 1.55742,0.0245 2.82284,0.0367 3.79624,0.0367 0.77872,3e-5 1.86162,-0.0182 3.24871,-0.0548 1.38709,-0.0363 2.48824,-0.0547 3.30347,-0.0547 1.6791,4e-5 2.91409,0.1217 3.70499,0.36504 0.83954,0.26769 1.57567,0.68748 2.20841,1.2593 0.63268,0.57193 1.11329,1.25937 1.44183,2.0624 0.36501,0.90042 0.54752,1.86771 0.54754,2.90195 -2e-5,1.56962 -0.39242,2.99626 -1.1772,4.27988 -0.78482,1.28369 -1.87077,2.24186 -3.25784,2.87459 -1.3871,0.63269 -2.92629,0.94905 -4.61755,0.94905 -0.8274,0 -1.70954,-0.0851 -2.64643,-0.25553 -0.26769,-1.26538 -0.57187,-2.45172 -0.91255,-3.55895 0.75437,0.15818 1.50267,0.23725 2.24489,0.23725 1.00989,0 1.88595,-0.15207 2.62817,-0.45627 0.74221,-0.30417 1.33233,-0.79999 1.77037,-1.48751 0.43802,-0.6874 0.65703,-1.46308 0.65704,-2.32702 -1e-5,-0.51098 -0.0913,-0.97945 -0.27377,-1.40532 -0.18252,-0.42583 -0.44716,-0.76655 -0.79392,-1.02208 -0.34679,-0.25549 -0.73006,-0.42887 -1.14983,-0.52014 -0.41978,-0.0912 -1.01904,-0.13687 -1.79774,-0.13691 -0.68139,4e-5 -1.36885,0.0122 -2.06239,0.0367 -0.69355,0.0245 -1.30801,0.0367 -1.84336,0.0367 -0.14602,2.38485 -0.25553,4.66623 -0.32853,6.84419 l -0.21901,6.97197 c -0.073,2.47 -0.10952,4.28295 -0.10951,5.43882 -1e-5,0.43803 0.006,1.07076 0.0182,1.89815 l -2.64643,-0.0367 c -0.34069,0 -1.25324,0.0122 -2.73768,0.0367 z" style="font-size:40px;font-style:normal;font-variant:normal;font-weight:400;font-stretch:normal;text-align:start;line-height:125%;letter-spacing:0;word-spacing:0;writing-mode:lr-tb;text-anchor:start;fill:#7e8696;fill-opacity:1;stroke:none;font-family:Eras Demi ITC;-inkscape-font-specification:Eras Demi ITC"/><path style="fill:#fa72c6;fill-opacity:1;stroke:none" id="path4649-1-0-7-3-5-3" d="m 515.64189,431.44914 a 34.635284,39 0 0 1 1.55431,69.81693 L 501,466.79285 z" transform="matrix(-0.37748059,0,0,0.37748059,205.69504,-107.20821)"/></svg>